<mxfile host="app.diagrams.net" agent="Mozilla/5.0 (X11; Linux x86_64) AppleWebKit/537.36 (KHTML, like Gecko) Chrome/129.0.0.0 Safari/537.36" version="24.8.4">
  <diagram name="Seite-1" id="yuGMgSGkvPNPzRTSLYds">
    <mxGraphModel dx="1368" dy="754" grid="1" gridSize="10" guides="1" tooltips="1" connect="1" arrows="1" fold="1" page="1" pageScale="1" pageWidth="827" pageHeight="1169" math="0" shadow="0">
      <root>
        <mxCell id="0" />
        <mxCell id="1" parent="0" />
        <mxCell id="W_zOAZ0_mpa8WEUn6_4m-1" value="Produkt" style="rounded=0;whiteSpace=wrap;html=1;" vertex="1" parent="1">
          <mxGeometry x="374" y="200" width="80" height="40" as="geometry" />
        </mxCell>
        <mxCell id="W_zOAZ0_mpa8WEUn6_4m-5" style="edgeStyle=orthogonalEdgeStyle;rounded=0;orthogonalLoop=1;jettySize=auto;html=1;endArrow=none;endFill=0;" edge="1" parent="1" source="W_zOAZ0_mpa8WEUn6_4m-2" target="W_zOAZ0_mpa8WEUn6_4m-1">
          <mxGeometry relative="1" as="geometry" />
        </mxCell>
        <mxCell id="W_zOAZ0_mpa8WEUn6_4m-2" value="&lt;div style=&quot;&quot;&gt;&lt;u style=&quot;background-color: initial;&quot;&gt;product_id,&lt;/u&gt;&lt;/div&gt;&lt;div style=&quot;&quot;&gt;Name,&lt;/div&gt;&lt;div style=&quot;&quot;&gt;&lt;br&gt;&lt;/div&gt;" style="ellipse;whiteSpace=wrap;html=1;align=center;" vertex="1" parent="1">
          <mxGeometry x="350" y="50" width="130" height="50" as="geometry" />
        </mxCell>
        <mxCell id="W_zOAZ0_mpa8WEUn6_4m-3" value="aisle" style="rounded=0;whiteSpace=wrap;html=1;" vertex="1" parent="1">
          <mxGeometry x="660" y="200" width="80" height="40" as="geometry" />
        </mxCell>
        <mxCell id="W_zOAZ0_mpa8WEUn6_4m-6" style="edgeStyle=orthogonalEdgeStyle;rounded=0;orthogonalLoop=1;jettySize=auto;html=1;endArrow=none;endFill=0;" edge="1" parent="1" source="W_zOAZ0_mpa8WEUn6_4m-4" target="W_zOAZ0_mpa8WEUn6_4m-3">
          <mxGeometry relative="1" as="geometry" />
        </mxCell>
        <mxCell id="W_zOAZ0_mpa8WEUn6_4m-4" value="&lt;u&gt;aisle_id,&lt;/u&gt;&lt;div&gt;Name,&lt;/div&gt;&lt;div&gt;&lt;br&gt;&lt;/div&gt;" style="ellipse;whiteSpace=wrap;html=1;" vertex="1" parent="1">
          <mxGeometry x="640" y="40" width="120" height="70" as="geometry" />
        </mxCell>
        <mxCell id="W_zOAZ0_mpa8WEUn6_4m-33" style="edgeStyle=orthogonalEdgeStyle;rounded=0;orthogonalLoop=1;jettySize=auto;html=1;entryX=0.5;entryY=1;entryDx=0;entryDy=0;endArrow=none;endFill=0;" edge="1" parent="1" source="W_zOAZ0_mpa8WEUn6_4m-7" target="W_zOAZ0_mpa8WEUn6_4m-30">
          <mxGeometry relative="1" as="geometry" />
        </mxCell>
        <mxCell id="W_zOAZ0_mpa8WEUn6_4m-34" value="(0,n)" style="edgeLabel;html=1;align=center;verticalAlign=middle;resizable=0;points=[];" vertex="1" connectable="0" parent="W_zOAZ0_mpa8WEUn6_4m-33">
          <mxGeometry x="-0.2" relative="1" as="geometry">
            <mxPoint as="offset" />
          </mxGeometry>
        </mxCell>
        <mxCell id="W_zOAZ0_mpa8WEUn6_4m-7" value="Departments" style="rounded=0;whiteSpace=wrap;html=1;" vertex="1" parent="1">
          <mxGeometry x="375" y="420" width="80" height="40" as="geometry" />
        </mxCell>
        <mxCell id="W_zOAZ0_mpa8WEUn6_4m-9" style="edgeStyle=orthogonalEdgeStyle;rounded=0;orthogonalLoop=1;jettySize=auto;html=1;entryX=0.5;entryY=1;entryDx=0;entryDy=0;endArrow=none;endFill=0;" edge="1" parent="1" source="W_zOAZ0_mpa8WEUn6_4m-8" target="W_zOAZ0_mpa8WEUn6_4m-7">
          <mxGeometry relative="1" as="geometry" />
        </mxCell>
        <mxCell id="W_zOAZ0_mpa8WEUn6_4m-8" value="&lt;u&gt;department_id,&lt;/u&gt;&lt;div&gt;Name,&lt;/div&gt;&lt;div&gt;&lt;br&gt;&lt;/div&gt;" style="ellipse;whiteSpace=wrap;html=1;" vertex="1" parent="1">
          <mxGeometry x="355" y="510" width="120" height="70" as="geometry" />
        </mxCell>
        <mxCell id="W_zOAZ0_mpa8WEUn6_4m-10" value="Order" style="rounded=0;whiteSpace=wrap;html=1;" vertex="1" parent="1">
          <mxGeometry x="60" y="200" width="80" height="40" as="geometry" />
        </mxCell>
        <mxCell id="W_zOAZ0_mpa8WEUn6_4m-17" style="edgeStyle=orthogonalEdgeStyle;rounded=0;orthogonalLoop=1;jettySize=auto;html=1;entryX=0.5;entryY=0;entryDx=0;entryDy=0;endArrow=none;endFill=0;" edge="1" parent="1" source="W_zOAZ0_mpa8WEUn6_4m-11" target="W_zOAZ0_mpa8WEUn6_4m-10">
          <mxGeometry relative="1" as="geometry" />
        </mxCell>
        <mxCell id="W_zOAZ0_mpa8WEUn6_4m-11" value="&lt;div style=&quot;&quot;&gt;&lt;u style=&quot;background-color: initial;&quot;&gt;order_id,&lt;/u&gt;&lt;/div&gt;&lt;div style=&quot;&quot;&gt;order_number,&lt;/div&gt;&lt;div style=&quot;&quot;&gt;day_of_week,&lt;/div&gt;&lt;div style=&quot;&quot;&gt;&lt;span style=&quot;background-color: initial;&quot;&gt;hour_of_day,&lt;/span&gt;&lt;br&gt;&lt;/div&gt;&lt;div style=&quot;&quot;&gt;&lt;span style=&quot;background-color: initial;&quot;&gt;day_since_prior_order,&lt;/span&gt;&lt;/div&gt;&lt;div style=&quot;&quot;&gt;&lt;span style=&quot;background-color: initial;&quot;&gt;tips,&lt;/span&gt;&lt;/div&gt;&lt;div style=&quot;&quot;&gt;&lt;span style=&quot;background-color: initial;&quot;&gt;user_id&lt;/span&gt;&lt;/div&gt;" style="ellipse;whiteSpace=wrap;html=1;align=center;" vertex="1" parent="1">
          <mxGeometry x="40" width="140" height="135" as="geometry" />
        </mxCell>
        <mxCell id="W_zOAZ0_mpa8WEUn6_4m-12" value="User" style="rounded=0;whiteSpace=wrap;html=1;" vertex="1" parent="1">
          <mxGeometry x="40" y="390" width="120" height="60" as="geometry" />
        </mxCell>
        <mxCell id="W_zOAZ0_mpa8WEUn6_4m-14" style="edgeStyle=orthogonalEdgeStyle;rounded=0;orthogonalLoop=1;jettySize=auto;html=1;entryX=0.5;entryY=1;entryDx=0;entryDy=0;endArrow=none;endFill=0;" edge="1" parent="1" source="W_zOAZ0_mpa8WEUn6_4m-13" target="W_zOAZ0_mpa8WEUn6_4m-12">
          <mxGeometry relative="1" as="geometry" />
        </mxCell>
        <mxCell id="W_zOAZ0_mpa8WEUn6_4m-13" value="&lt;div style=&quot;&quot;&gt;&lt;u style=&quot;background-color: initial;&quot;&gt;user_id,&lt;/u&gt;&lt;/div&gt;&lt;div style=&quot;&quot;&gt;&lt;br&gt;&lt;/div&gt;" style="ellipse;whiteSpace=wrap;html=1;align=center;" vertex="1" parent="1">
          <mxGeometry x="35" y="580" width="130" height="50" as="geometry" />
        </mxCell>
        <mxCell id="W_zOAZ0_mpa8WEUn6_4m-20" style="edgeStyle=orthogonalEdgeStyle;rounded=0;orthogonalLoop=1;jettySize=auto;html=1;entryX=0;entryY=0.5;entryDx=0;entryDy=0;endArrow=none;endFill=0;" edge="1" parent="1" source="W_zOAZ0_mpa8WEUn6_4m-18" target="W_zOAZ0_mpa8WEUn6_4m-1">
          <mxGeometry relative="1" as="geometry" />
        </mxCell>
        <mxCell id="W_zOAZ0_mpa8WEUn6_4m-24" value="(n,m)" style="edgeLabel;html=1;align=center;verticalAlign=middle;resizable=0;points=[];" vertex="1" connectable="0" parent="W_zOAZ0_mpa8WEUn6_4m-20">
          <mxGeometry x="-0.1" y="-2" relative="1" as="geometry">
            <mxPoint as="offset" />
          </mxGeometry>
        </mxCell>
        <mxCell id="W_zOAZ0_mpa8WEUn6_4m-18" value="beinhaltet" style="rhombus;whiteSpace=wrap;html=1;" vertex="1" parent="1">
          <mxGeometry x="210" y="170" width="90" height="100" as="geometry" />
        </mxCell>
        <mxCell id="W_zOAZ0_mpa8WEUn6_4m-19" style="edgeStyle=orthogonalEdgeStyle;rounded=0;orthogonalLoop=1;jettySize=auto;html=1;entryX=0.088;entryY=0.513;entryDx=0;entryDy=0;entryPerimeter=0;endArrow=none;endFill=0;" edge="1" parent="1" source="W_zOAZ0_mpa8WEUn6_4m-10" target="W_zOAZ0_mpa8WEUn6_4m-18">
          <mxGeometry relative="1" as="geometry" />
        </mxCell>
        <mxCell id="W_zOAZ0_mpa8WEUn6_4m-23" value="(n,m)" style="edgeLabel;html=1;align=center;verticalAlign=middle;resizable=0;points=[];" vertex="1" connectable="0" parent="W_zOAZ0_mpa8WEUn6_4m-19">
          <mxGeometry x="-0.1476" relative="1" as="geometry">
            <mxPoint as="offset" />
          </mxGeometry>
        </mxCell>
        <mxCell id="W_zOAZ0_mpa8WEUn6_4m-22" style="edgeStyle=orthogonalEdgeStyle;rounded=0;orthogonalLoop=1;jettySize=auto;html=1;entryX=0.5;entryY=0;entryDx=0;entryDy=0;endArrow=none;endFill=0;" edge="1" parent="1" source="W_zOAZ0_mpa8WEUn6_4m-21" target="W_zOAZ0_mpa8WEUn6_4m-18">
          <mxGeometry relative="1" as="geometry" />
        </mxCell>
        <mxCell id="W_zOAZ0_mpa8WEUn6_4m-21" value="&lt;div style=&quot;&quot;&gt;&lt;u style=&quot;background-color: initial;&quot;&gt;product_id,&lt;/u&gt;&lt;/div&gt;&lt;div style=&quot;&quot;&gt;&lt;u&gt;order_id,&lt;/u&gt;&lt;/div&gt;&lt;div style=&quot;&quot;&gt;add_to_cart_order&lt;/div&gt;" style="ellipse;whiteSpace=wrap;html=1;align=center;" vertex="1" parent="1">
          <mxGeometry x="190" y="40" width="130" height="75" as="geometry" />
        </mxCell>
        <mxCell id="W_zOAZ0_mpa8WEUn6_4m-26" style="edgeStyle=orthogonalEdgeStyle;rounded=0;orthogonalLoop=1;jettySize=auto;html=1;entryX=1;entryY=0.5;entryDx=0;entryDy=0;endArrow=none;endFill=0;" edge="1" parent="1" source="W_zOAZ0_mpa8WEUn6_4m-25" target="W_zOAZ0_mpa8WEUn6_4m-1">
          <mxGeometry relative="1" as="geometry" />
        </mxCell>
        <mxCell id="W_zOAZ0_mpa8WEUn6_4m-29" value="(1,1)" style="edgeLabel;html=1;align=center;verticalAlign=middle;resizable=0;points=[];" vertex="1" connectable="0" parent="W_zOAZ0_mpa8WEUn6_4m-26">
          <mxGeometry x="0.0303" y="1" relative="1" as="geometry">
            <mxPoint as="offset" />
          </mxGeometry>
        </mxCell>
        <mxCell id="W_zOAZ0_mpa8WEUn6_4m-27" style="edgeStyle=orthogonalEdgeStyle;rounded=0;orthogonalLoop=1;jettySize=auto;html=1;endArrow=none;endFill=0;" edge="1" parent="1" source="W_zOAZ0_mpa8WEUn6_4m-25" target="W_zOAZ0_mpa8WEUn6_4m-3">
          <mxGeometry relative="1" as="geometry" />
        </mxCell>
        <mxCell id="W_zOAZ0_mpa8WEUn6_4m-28" value="(0,n)" style="edgeLabel;html=1;align=center;verticalAlign=middle;resizable=0;points=[];" vertex="1" connectable="0" parent="W_zOAZ0_mpa8WEUn6_4m-27">
          <mxGeometry x="0.2333" y="1" relative="1" as="geometry">
            <mxPoint as="offset" />
          </mxGeometry>
        </mxCell>
        <mxCell id="W_zOAZ0_mpa8WEUn6_4m-25" value="befindet sich&lt;div&gt;in&lt;/div&gt;" style="rhombus;whiteSpace=wrap;html=1;" vertex="1" parent="1">
          <mxGeometry x="500" y="170" width="100" height="90" as="geometry" />
        </mxCell>
        <mxCell id="W_zOAZ0_mpa8WEUn6_4m-30" value="zugehörig" style="rhombus;whiteSpace=wrap;html=1;" vertex="1" parent="1">
          <mxGeometry x="375" y="300" width="80" height="80" as="geometry" />
        </mxCell>
        <mxCell id="W_zOAZ0_mpa8WEUn6_4m-35" style="edgeStyle=orthogonalEdgeStyle;rounded=0;orthogonalLoop=1;jettySize=auto;html=1;entryX=0.45;entryY=0.1;entryDx=0;entryDy=0;entryPerimeter=0;endArrow=none;endFill=0;" edge="1" parent="1" source="W_zOAZ0_mpa8WEUn6_4m-1" target="W_zOAZ0_mpa8WEUn6_4m-30">
          <mxGeometry relative="1" as="geometry" />
        </mxCell>
        <mxCell id="W_zOAZ0_mpa8WEUn6_4m-36" value="(1,1)" style="edgeLabel;html=1;align=center;verticalAlign=middle;resizable=0;points=[];" vertex="1" connectable="0" parent="W_zOAZ0_mpa8WEUn6_4m-35">
          <mxGeometry x="0.0732" y="-1" relative="1" as="geometry">
            <mxPoint as="offset" />
          </mxGeometry>
        </mxCell>
      </root>
    </mxGraphModel>
  </diagram>
</mxfile>
